<?xml version="1.0" encoding="utf-8"?>
<!-- Generator: Adobe Illustrator 27.5.0, SVG Export Plug-In . SVG Version: 6.00 Build 0)  -->
<svg version="1.1" id="Layer_1" xmlns="http://www.w3.org/2000/svg" xmlns:xlink="http://www.w3.org/1999/xlink" x="0px" y="0px"
	 viewBox="0 0 480 640" style="enable-background:new 0 0 480 640;" xml:space="preserve">
<style type="text/css">
	.st0{fill:none;stroke:#000000;stroke-width:2;stroke-miterlimit:10;}
	.st1{fill:url(#SVGID_1_);stroke:#000000;stroke-width:13;stroke-miterlimit:10;}
	.st2{fill:#DFB28B;stroke:#000000;stroke-width:8;stroke-miterlimit:10;}
	.st3{fill:#DFB28B;stroke:#000000;stroke-width:9;stroke-miterlimit:10;}
	.st4{opacity:0.1;fill:none;stroke:#000000;stroke-width:5;stroke-miterlimit:10;}
	.st5{font-family:'MS-PGothic';}
	.st6{font-size:36px;}
</style>
<path class="st0" d="M240.37,329.84"/>
<linearGradient id="SVGID_1_" gradientUnits="userSpaceOnUse" x1="139.0503" y1="262.5237" x2="340.9497" y2="262.5237">
	<stop  offset="0" style="stop-color:#ED1C24"/>
	<stop  offset="0.0875" style="stop-color:#EE2F24"/>
	<stop  offset="0.2404" style="stop-color:#F05023"/>
	<stop  offset="0.4392" style="stop-color:#F47721"/>
	<stop  offset="0.5002" style="stop-color:#F58220"/>
	<stop  offset="0.9447" style="stop-color:#F16028"/>
	<stop  offset="1" style="stop-color:#F15A29"/>
</linearGradient>
<path class="st1" d="M316.95,282.89c-13.22,17.17-26.55,27.74-39.11,37.56c-14.48,11.33-27.56,19.41-37.05,24.78
	c-11.9-6.1-26.38-14.83-41.39-27.23c-18.7-15.44-30.59-30.19-36-37.33c-13.74-18.14-20.61-27.21-23.11-41.56
	c-0.89-5.14-5.86-33.68,13.33-49.78c9.53-7.99,22.62-10.91,33.78-8.89c15.78,2.86,25.45,15.21,38.44,31.78
	c6.75,8.61,11.37,16.36,14.22,21.56c18.34-36.89,47.29-57.78,69.36-52.81C321,183.57,329.42,193,330.29,194
	c14.21,16.29,10.54,38.45,9.33,45.78C336.74,257.18,328.17,268.32,316.95,282.89z"/>
<path class="st0" d="M250.51,458.73"/>
<g>
	<g>
		<path class="st2" d="M252.36,463.69v-29.11c-2.1-4.98-4.37-11.75-5.56-20c-1.43-9.99-0.74-18.48,0.22-24.44
			c1.69-4.5,4.37-10.23,8.67-16.22c5.8-8.09,12.24-13.41,16.89-16.67c4.68-4.18,10.01-8.54,16-12.89c7.82-5.67,15.35-10.27,22.22-14
			c3.92-5.28,7.85-10.61,11.78-16c3.14-4.31,6.25-8.61,9.33-12.89c3.72-3.76,7.44-5.68,9.78-6.67c2.52-1.06,4.25-1.01,11.11-2.44
			c3.17-0.66,5.75-1.26,7.44-1.67c-0.75-9.34-0.97-17.36-1-23.67c-0.03-7.09,0.78-13.59,2.22-21.56c0.37-2.06,1.38-6.04,4.44-10
			c3.87-5.01,8.71-6.93,9.78-7.33c3.91-1.46,7.36-1.46,9.32-1.31c1.65,8.8,3.05,18.32,4.02,28.49c0.53,5.57,0.89,10.96,1.11,16.15
			c-0.43,8.21-0.88,16.43-1.33,24.67c-0.99,17.92-2.03,35.77-3.11,53.56c-18.52,18.44-37.04,36.89-55.56,55.33
			c-1.74,2.09-3.56,4.53-5.33,7.33c-2.84,4.5-4.82,8.78-6.22,12.44c0,12.22,0,24.44,0,36.67"/>
		<path class="st3" d="M317.47,366.58c8.99-6.35,18.52-14.64,27.26-25.48c1.52-1.88,2.95-3.76,4.3-5.63
			c2.35-5.54,4.69-11.98,6.67-19.26c2.4-8.82,3.72-16.9,4.44-23.85"/>
		<path class="st3" d="M341.47,338.13"/>
	</g>
	<path class="st4" d="M312.56,461.22c0.56-12.89,1.11-25.78,1.67-38.67c6.48-9.56,12.96-19.11,19.44-28.67l22.67-20.67L374.11,353
		l8-11.71V321l2.44-36v-20.89l-2.44-14l-1.78-13.33l-0.67-4.22c0-0.88,0-1.76,0-2.64"/>
</g>
<g>
	<g>
		<path class="st2" d="M227.14,464.03v-29.11c2.1-4.98,4.37-11.75,5.56-20c1.43-9.99,0.74-18.48-0.22-24.44
			c-1.69-4.5-4.37-10.23-8.67-16.22c-5.8-8.09-12.24-13.41-16.89-16.67c-4.68-4.18-10.01-8.54-16-12.89
			c-7.82-5.67-15.35-10.27-22.22-14c-3.92-5.28-7.85-10.61-11.78-16c-3.14-4.31-6.25-8.61-9.33-12.89
			c-3.72-3.76-7.44-5.68-9.78-6.67c-2.52-1.06-4.25-1.01-11.11-2.44c-3.17-0.66-5.75-1.26-7.44-1.67c0.75-9.34,0.97-17.36,1-23.67
			c0.03-7.09-0.78-13.59-2.22-21.56c-0.37-2.06-1.38-6.04-4.44-10c-3.87-5.01-8.71-6.93-9.78-7.33c-3.91-1.46-7.36-1.46-9.32-1.31
			c-1.65,8.8-3.05,18.32-4.02,28.49c-0.53,5.57-0.89,10.96-1.11,16.15c0.43,8.21,0.88,16.43,1.33,24.67
			c0.99,17.92,2.03,35.77,3.11,53.56c18.52,18.44,37.04,36.89,55.56,55.33c1.74,2.09,3.56,4.53,5.33,7.33
			c2.84,4.5,4.82,8.78,6.22,12.44c0,12.22,0,24.44,0,36.67"/>
		<path class="st3" d="M162.03,366.92c-8.99-6.35-18.52-14.64-27.26-25.48c-1.52-1.88-2.95-3.76-4.3-5.63
			c-2.35-5.54-4.69-11.98-6.67-19.26c-2.4-8.82-3.72-16.9-4.44-23.85"/>
		<path class="st3" d="M138.03,338.48"/>
	</g>
	<path class="st4" d="M166.95,461.57c-0.56-12.89-1.11-25.78-1.67-38.67c-6.48-9.56-12.96-19.11-19.44-28.67l-22.67-20.67
		l-17.78-20.22l-8-11.71v-20.29l-2.44-36v-20.89l2.44-14l1.78-13.33l0.67-4.22c0-0.88,0-1.76,0-2.64"/>
</g>
<text transform="matrix(1 0 0 1 133.4806 505.2184)" class="st5 st6">HealthForYou</text>
</svg>
