<?xml version="1.0" standalone="no"?>
<!DOCTYPE svg PUBLIC "-//W3C//DTD SVG 20010904//EN"
 "http://www.w3.org/TR/2001/REC-SVG-20010904/DTD/svg10.dtd">
<svg version="1.0" xmlns="http://www.w3.org/2000/svg"
 width="1288.000000pt" height="1288.000000pt" viewBox="0 0 1288.000000 1288.000000"
 preserveAspectRatio="xMidYMid meet">
<metadata>
Created by potrace 1.14, written by Peter Selinger 2001-2017
</metadata>
<g transform="translate(0.000000,1288.000000) scale(0.100000,-0.100000)"
fill="#000000" stroke="none">
<path d="M3770 12489 c-30 -4 -82 -10 -115 -14 -33 -4 -71 -12 -85 -17 -14 -5
-26 -9 -28 -8 -2 1 -72 -10 -92 -15 -164 -40 -402 -142 -555 -238 -69 -43
-109 -72 -220 -157 -51 -40 -217 -214 -271 -285 -248 -327 -381 -706 -423
-1205 -13 -150 -5 -490 14 -615 3 -16 7 -55 11 -85 14 -125 67 -359 112 -497
83 -249 195 -468 392 -763 83 -126 343 -486 360 -500 3 -3 30 -39 60 -80 30
-41 57 -77 60 -80 3 -3 32 -41 65 -85 57 -76 173 -224 185 -235 3 -3 39 -45
79 -95 278 -336 662 -729 1016 -1041 124 -109 363 -308 399 -333 12 -8 23 -17
26 -20 3 -3 43 -35 90 -71 47 -35 87 -67 90 -70 15 -17 342 -246 505 -352 324
-213 595 -371 942 -548 l102 -53 68 38 c254 141 629 372 893 549 91 61 170
114 175 119 6 4 70 51 143 103 160 114 368 272 592 449 510 403 797 665 1170
1071 260 281 767 958 941 1256 238 406 373 805 424 1253 3 28 8 61 10 75 12
67 19 201 19 360 1 165 -9 374 -18 389 -3 4 -8 33 -11 66 -12 102 -80 355
-129 479 -154 392 -411 706 -781 954 -159 106 -379 207 -525 242 -19 5 -66 16
-105 25 -82 20 -407 29 -495 14 -30 -5 -73 -11 -95 -15 -163 -23 -395 -103
-610 -209 -600 -295 -1200 -883 -1655 -1622 l-57 -93 -83 123 c-75 111 -285
393 -426 572 -279 355 -592 695 -774 839 -218 173 -436 291 -660 358 -94 28
-106 30 -295 63 -54 10 -367 13 -435 4z"/>
<path d="M12328 10435 c-2 -2 -27 -6 -57 -9 -339 -40 -670 -285 -826 -610 -62
-130 -78 -187 -120 -421 -7 -39 -19 -122 -41 -280 -20 -147 -29 -329 -28 -595
1 -244 5 -375 20 -676 5 -89 3 -111 -7 -111 -8 -1 -79 -15 -159 -32 -80 -17
-164 -33 -185 -36 -98 -15 -235 -49 -295 -72 -122 -49 -272 -142 -391 -244
-72 -63 -79 -71 -254 -314 -146 -201 -601 -824 -679 -928 -11 -14 -36 -34 -55
-44 -20 -10 -59 -33 -88 -50 -29 -18 -54 -33 -57 -33 -5 0 -236 -140 -306
-186 -25 -16 -49 -31 -55 -34 -31 -15 -431 -294 -445 -310 -3 -3 -41 -32 -85
-64 -105 -78 -198 -153 -380 -307 -82 -70 -182 -151 -221 -180 -115 -87 -171
-136 -304 -266 -304 -299 -533 -641 -693 -1033 -43 -107 -50 -144 -73 -405
-15 -157 -8 -533 11 -665 2 -14 7 -49 10 -79 4 -30 9 -63 11 -75 2 -12 9 -48
14 -81 16 -97 19 -111 55 -252 34 -132 100 -336 137 -421 17 -41 18 -82 18
-633 0 -464 3 -589 13 -590 34 -3 311 1 372 5 39 2 158 7 265 10 107 4 247 9
310 11 63 3 194 7 290 10 278 9 423 13 600 20 170 6 278 10 605 21 105 3 231
7 280 9 50 2 150 4 223 4 l132 1 0 749 0 749 36 84 c45 106 139 284 200 379
136 211 156 233 1372 1444 1083 1080 1185 1184 1187 1215 1 19 6 94 10 165 3
72 8 150 10 175 2 25 7 92 10 150 3 58 7 132 9 165 3 33 7 116 10 185 4 69 9
145 11 170 2 25 7 99 10 165 4 66 8 145 10 175 13 215 21 352 30 530 3 52 7
129 10 170 2 41 7 129 10 195 3 66 7 145 10 175 2 30 7 114 10 185 4 72 8 155
10 185 26 427 26 747 0 980 -3 19 -7 69 -10 110 -3 41 -7 91 -10 110 -2 19 -7
64 -10 100 -7 72 -10 100 -19 175 -4 28 -8 68 -11 90 -2 22 -6 56 -9 75 -8 54
-14 100 -21 155 -3 28 -10 75 -15 105 -5 30 -12 73 -15 95 -2 22 -6 49 -9 60
-2 11 -9 54 -16 95 -13 76 -57 316 -66 358 -4 19 -11 22 -62 23 -199 5 -242 6
-244 4z"/>
<path d="M427 10425 c-1 -2 -42 -5 -92 -8 -49 -4 -90 -7 -90 -7 -1 0 -1 -8 -2
-18 -1 -10 -11 -69 -23 -132 -12 -63 -24 -125 -26 -138 -26 -153 -34 -198 -49
-302 -11 -77 -14 -94 -20 -140 -3 -25 -8 -52 -10 -60 -2 -8 -7 -44 -10 -80 -3
-36 -8 -72 -10 -80 -2 -8 -7 -44 -10 -80 -7 -74 -13 -130 -20 -180 -2 -19 -7
-71 -10 -115 -3 -44 -8 -93 -10 -110 -2 -16 -7 -70 -10 -120 -3 -49 -8 -112
-10 -140 -15 -176 -19 -325 -11 -470 3 -38 7 -124 11 -190 3 -66 8 -154 10
-195 3 -41 7 -120 10 -175 3 -55 7 -138 10 -185 3 -47 7 -123 10 -170 2 -47 7
-131 10 -188 3 -56 7 -128 10 -160 2 -31 6 -115 10 -187 3 -71 8 -155 10 -185
4 -57 12 -204 20 -345 6 -100 13 -222 20 -345 4 -52 8 -124 10 -160 8 -155 16
-289 20 -335 2 -27 7 -104 11 -170 3 -66 7 -137 8 -157 3 -34 78 -111 1189
-1218 1220 -1216 1248 -1245 1374 -1448 72 -115 135 -236 191 -363 l42 -96 0
-747 c0 -410 3 -746 8 -746 4 -1 77 -3 162 -5 85 -2 238 -7 340 -10 102 -4
237 -8 300 -10 108 -4 276 -9 585 -20 72 -2 202 -7 290 -10 88 -3 228 -7 310
-10 372 -12 487 -16 590 -21 61 -3 199 -7 308 -8 l197 -2 0 588 0 589 34 87
c68 176 138 424 170 602 23 131 25 141 32 200 3 30 8 63 10 72 23 124 22 642
-1 781 -2 12 -9 60 -15 107 -15 117 -98 315 -228 545 -41 72 -164 265 -191
297 -6 7 -50 63 -99 123 -166 206 -416 440 -602 565 -12 8 -34 27 -49 41 -174
171 -810 651 -1053 794 -9 6 -72 44 -140 86 -149 93 -317 189 -328 189 -9 0
-74 75 -116 136 -16 23 -108 148 -204 279 -96 130 -211 287 -255 348 -44 62
-95 132 -113 157 -49 67 -56 76 -135 185 -93 129 -167 199 -302 289 -155 103
-274 156 -410 181 -49 10 -99 19 -110 21 -11 2 -45 9 -75 15 -30 5 -67 12 -83
14 -15 2 -31 6 -35 9 -4 2 -25 7 -47 10 -22 4 -62 12 -90 19 l-49 12 3 50 c35
532 33 1073 -4 1325 -2 14 -7 50 -10 80 -3 30 -8 62 -10 70 -2 8 -7 35 -10 60
-5 39 -23 146 -39 230 -35 185 -147 395 -294 548 -178 186 -422 308 -652 327
-106 9 -150 12 -153 10z"/>
</g>
</svg>
